<?xml version="1.0" encoding="utf-8"?>
<!-- Generator: Adobe Illustrator 16.0.0, SVG Export Plug-In . SVG Version: 6.00 Build 0)  -->
<!DOCTYPE svg PUBLIC "-//W3C//DTD SVG 1.1//EN" "http://www.w3.org/Graphics/SVG/1.1/DTD/svg11.dtd">
<svg version="1.1" id="Layer_1" xmlns="http://www.w3.org/2000/svg" xmlns:xlink="http://www.w3.org/1999/xlink" x="0px" y="0px"
	 width="247px" height="340px" viewBox="0 0 247 340" enable-background="new 0 0 247 340" xml:space="preserve">
<g>
	<g>
		<path fill="#3D5159" d="M218.202,53.241l-80.97-46.969c-7.994-4.637-17.85-4.637-25.846,0L30.119,53.241
			C22.169,57.851,17,66.345,17,75.534v93.938c0,9.189,5.175,17.683,13.124,22.293l81.133,46.969
			c3.998,2.318,8.534,3.477,12.999,3.477s8.965-1.158,12.963-3.477l80.965-46.969c7.949-4.61,12.816-13.104,12.816-22.293V75.534
			C231,66.345,226.151,57.851,218.202,53.241z M220,171.776c0,4.132-1.759,7.951-5.333,10.025l-84.749,49.273
			c-1.797,1.043-3.695,1.563-5.702,1.563c-2.008,0-3.96-0.521-5.758-1.563l-85.325-49.273C29.559,179.728,27,175.908,27,171.776
			V73.228c0-4.132,2.585-7.95,6.159-10.022l85.161-49.275c3.595-2.085,8.126-2.085,11.722,0l84.574,49.275
			C218.19,65.278,220,69.096,220,73.228V171.776z"/>
	</g>
	<g>
		<path fill="#3D5159" d="M61.985,329.205h-2.078l-13.05-30.298l-13.01,30.298h-2.078L15.85,283.734h8.438l9.519,29.221
			l11.845-29.221h2.078l12.22,29.221l10.224-29.221h7.772L61.985,329.205z"/>
		<path fill="#3D5159" d="M105.069,323.263c-3.158,3.964-7.994,5.942-14.506,5.942c-3.49,0-6.519-1.266-9.08-3.803
			c-2.563-2.535-3.845-5.688-3.845-9.453c0-4.519,1.975-8.336,5.923-11.453c3.948-3.118,8.983-4.675,15.107-4.675
			c1.662,0,3.546,0.36,5.653,1.079c0-7.201-3.215-10.806-9.644-10.806c-4.933,0-8.729,1.331-11.389,3.989l-3.324-6.607
			c1.496-1.218,3.567-2.265,6.214-3.137c2.646-0.873,5.175-1.31,7.585-1.31c6.456,0,11.145,1.468,14.069,4.404
			c2.923,2.938,4.385,7.607,4.385,14.007v15.961c0,3.906,1.163,6.511,3.49,7.812v3.949c-3.214,0-5.617-0.456-7.211-1.369
			C106.904,326.878,105.761,325.368,105.069,323.263z M104.322,306.512c-2.494-0.553-4.24-0.831-5.238-0.831
			c-3.989,0-7.246,1.024-9.767,3.076c-2.522,2.051-3.781,4.476-3.781,7.274c0,4.627,2.729,6.939,8.188,6.939
			c3.989,0,7.522-1.896,10.599-5.694V306.512z"/>
		<path fill="#3D5159" d="M121.012,315.782v-54.773h7.896v53.441c0,2.386,0.686,4.261,2.059,5.633
			c1.371,1.372,3.162,2.056,5.381,2.056v7.066C126.124,329.205,121.012,324.732,121.012,315.782z"/>
		<path fill="#3D5159" d="M141.861,315.782v-65.516h7.896v64.184c0,2.386,0.684,4.261,2.055,5.633
			c1.373,1.372,3.17,2.056,5.385,2.056v7.066C146.971,329.205,141.861,324.732,141.861,315.782z"/>
		<path fill="#3D5159" d="M187.229,323.263c-3.158,3.964-7.994,5.942-14.506,5.942c-3.49,0-6.518-1.266-9.08-3.803
			c-2.562-2.535-3.844-5.688-3.844-9.453c0-4.519,1.975-8.336,5.924-11.453c3.949-3.118,8.982-4.675,15.105-4.675
			c1.664,0,3.547,0.36,5.654,1.079c0-7.201-3.215-10.806-9.645-10.806c-4.932,0-8.729,1.331-11.387,3.989l-3.326-6.607
			c1.496-1.218,3.566-2.265,6.215-3.137c2.646-0.873,5.176-1.31,7.584-1.31c6.455,0,11.145,1.468,14.07,4.404
			c2.922,2.938,4.383,7.607,4.383,14.007v15.961c0,3.906,1.166,6.511,3.494,7.812v3.949c-3.215,0-5.619-0.456-7.213-1.369
			C189.064,326.878,187.92,325.368,187.229,323.263z M186.482,306.512c-2.496-0.553-4.24-0.831-5.238-0.831
			c-3.99,0-7.246,1.024-9.766,3.076c-2.523,2.051-3.781,4.476-3.781,7.274c0,4.627,2.725,6.939,8.184,6.939
			c3.992,0,7.525-1.896,10.602-5.694V306.512z"/>
		<path fill="#3D5159" d="M199.639,325.715l2.787-7.48c4.404,2.88,7.949,4.321,10.639,4.321c4.879,0,7.312-2.051,7.312-6.151
			c0-2.937-2.355-5.459-7.062-7.565c-3.629-1.661-6.074-2.922-7.336-3.78s-2.355-1.837-3.285-2.93
			c-0.928-1.096-1.619-2.259-2.078-3.493c-0.455-1.232-0.684-2.556-0.684-3.969c0-3.657,1.328-6.511,3.988-8.561
			c2.66-2.053,6.137-3.076,10.432-3.076c3.244,0,7.33,1.023,12.262,3.076l-2.244,7.315c-3.131-2.495-6.273-3.742-9.436-3.742
			c-1.885,0-3.469,0.444-4.758,1.33c-1.289,0.888-1.932,2.011-1.932,3.368c0,2.853,1.619,5.015,4.863,6.482l5.65,2.576
			c3.463,1.58,5.986,3.382,7.564,5.402c1.58,2.023,2.371,4.561,2.371,7.607c0,3.989-1.4,7.114-4.199,9.373
			c-2.797,2.257-6.678,3.386-11.637,3.386C208.174,329.205,203.768,328.043,199.639,325.715z"/>
	</g>
	<g>
		<radialGradient id="SVGID_1_" cx="136.75" cy="133.0679" r="98.441" gradientUnits="userSpaceOnUse">
			<stop  offset="0" style="stop-color:#00A99D"/>
			<stop  offset="1" style="stop-color:#22B573"/>
		</radialGradient>
		<path fill="url(#SVGID_1_)" d="M114.018,173.685c-17.979,0-44.328-32.769-53.319-54.86c-4.779-11.744-4.913-20.812-0.412-27.721
			c4.25-6.522,12.109-10.381,19.971-13.58c5.768-2.347,12.518-4.746,18.85-4.746c10.63,0,18.253,6.564,23.988,20.658
			c9.52,23.4,14.239,71.851-4.092,79.309C117.47,173.368,115.792,173.685,114.018,173.685z"/>
		<path fill="#FFFFFF" d="M99.107,74.25c8.833,0,16.562,4.843,22.624,19.741c9.964,24.49,13.193,70.686-3.282,77.39
			c-1.388,0.565-2.872,0.832-4.431,0.832c-16.949,0-42.827-31.514-51.955-53.944c-9.968-24.495,2.272-32.677,18.75-39.382
			C87.268,76.26,93.417,74.25,99.107,74.25 M99.109,71.305L99.109,71.305c-6.589,0-13.508,2.454-19.406,4.854
			c-8.083,3.289-16.18,7.279-20.649,14.141c-4.784,7.343-4.692,16.855,0.282,29.08c4.696,11.541,13.737,25.434,23.595,36.256
			c6.641,7.291,19.51,19.521,31.088,19.521c1.966,0,3.83-0.352,5.54-1.048c8.627-3.511,13.383-15.852,13.393-34.752
			c0.006-15.539-3.328-33.782-8.492-46.476C118.551,78.362,110.259,71.305,99.109,71.305L99.109,71.305z"/>
	</g>
	<g opacity="0.25">
		<defs>
			<path id="SVGID_2_" opacity="0.25" d="M121.731,93.991c9.964,24.49,13.193,70.686-3.282,77.39
				c-16.478,6.706-46.418-28.619-56.386-53.112c-9.968-24.495,2.272-32.677,18.75-39.382
				C97.29,72.182,111.763,69.496,121.731,93.991z"/>
		</defs>
		<clipPath id="SVGID_3_">
			<use xlink:href="#SVGID_2_"  overflow="visible"/>
		</clipPath>
		<radialGradient id="SVGID_4_" cx="57.5479" cy="174.4648" r="61.2839" gradientUnits="userSpaceOnUse">
			<stop  offset="0" style="stop-color:#FFFFFF"/>
			<stop  offset="1" style="stop-color:#FFFFFF;stop-opacity:0.5"/>
		</radialGradient>
		<circle clip-path="url(#SVGID_3_)" fill="url(#SVGID_4_)" cx="57.548" cy="174.465" r="61.284"/>
	</g>
	<g>
		<radialGradient id="SVGID_5_" cx="146.3027" cy="146.0947" r="84.3979" gradientUnits="userSpaceOnUse">
			<stop  offset="0" style="stop-color:#00A99D"/>
			<stop  offset="1" style="stop-color:#22B573"/>
		</radialGradient>
		<path fill="url(#SVGID_5_)" d="M122.222,173.449c-19.163,0-32.61-43.653-32.61-67.287c0-26.714,16.109-28.95,32.61-28.95
			c16.5,0,32.612,2.235,32.612,28.95C154.834,129.796,141.385,173.449,122.222,173.449z"/>
		<path fill="#FFFFFF" d="M122.222,78.686c17.2,0,31.139,2.772,31.139,27.477c0,24.701-13.939,65.814-31.139,65.814
			c-17.198,0-31.138-41.113-31.138-65.814C91.084,81.458,105.024,78.686,122.222,78.686 M122.222,75.74
			c-16.49,0-34.083,2.351-34.083,30.422c0,12.838,3.67,29.839,9.351,43.314c4.007,9.503,12.547,25.445,24.732,25.445
			c12.186,0,20.727-15.942,24.733-25.445c5.682-13.475,9.352-30.476,9.352-43.314C156.307,78.091,138.713,75.74,122.222,75.74
			L122.222,75.74z"/>
	</g>
	<g opacity="0.3">
		<defs>
			<path id="SVGID_6_" opacity="0.3" d="M153.361,106.163c0,24.701-13.939,65.814-31.139,65.814
				c-17.198,0-31.138-41.113-31.138-65.814c0-24.705,13.939-27.477,31.138-27.477C139.422,78.686,153.361,81.458,153.361,106.163z"
				/>
		</defs>
		<clipPath id="SVGID_7_">
			<use xlink:href="#SVGID_6_"  overflow="visible"/>
		</clipPath>
		<radialGradient id="SVGID_8_" cx="94.8311" cy="150.0503" r="41.0422" gradientUnits="userSpaceOnUse">
			<stop  offset="0" style="stop-color:#FFFFFF"/>
			<stop  offset="1" style="stop-color:#FFFFFF;stop-opacity:0.5"/>
		</radialGradient>
		<circle clip-path="url(#SVGID_7_)" fill="url(#SVGID_8_)" cx="94.831" cy="150.05" r="41.042"/>
	</g>
	<g>
		
			<radialGradient id="SVGID_9_" cx="202.4727" cy="116.5142" r="98.3134" fx="155.6143" fy="106.4817" gradientUnits="userSpaceOnUse">
			<stop  offset="0" style="stop-color:#00A99D"/>
			<stop  offset="1" style="stop-color:#22B573"/>
		</radialGradient>
		<path fill="url(#SVGID_9_)" d="M132.482,174.024c-1.898,0-3.73-0.292-5.44-0.866c-9.539-3.203-16.007-15.335-18.212-34.16
			c-1.863-15.909-0.232-34.631,4.156-47.698c4.992-14.867,13.128-21.792,25.603-21.792c7.133,0,14.984,2.315,21.725,4.58
			c9.402,3.157,18.881,6.989,24.514,13.591c6.02,7.055,6.947,16.443,2.83,28.699C179.863,139.591,153.26,174.024,132.482,174.024z"
			/>
		<path fill="#FFFFFF" d="M138.59,70.981c6.461,0,13.652,1.949,21.256,4.502c19.85,6.666,34.979,14.93,26.416,40.426
			c-7.871,23.443-34.166,56.643-53.779,56.643c-1.713,0-3.377-0.255-4.971-0.789c-19.848-6.666-21.69-54.498-13.129-79.993
			C119.665,76.04,128.18,70.982,138.59,70.981 M138,68.036v2.945V69h0.59c-13.018,0-21.848,6.976-27,22.314
			c-8.342,24.839-7.775,75.839,14.983,83.482c1.862,0.625,3.85,0.821,5.909,0.821c13.23,0,26.662-12.914,33.492-20.576
			c10.168-11.41,19.012-26.052,23.078-38.165c4.297-12.788,3.279-22.656-3.104-30.139c-5.867-6.874-15.856-10.813-25.46-14.038
			C153.636,70.397,145,68.036,138,68.036L138,68.036z"/>
	</g>
	<g opacity="0.35">
		<defs>
			<path id="SVGID_10_" opacity="0.35" d="M186.262,115.909c-8.561,25.493-38.9,62.518-58.75,55.854
				c-19.848-6.666-21.69-54.498-13.129-79.993c8.562-25.496,25.614-22.954,45.463-16.286
				C179.695,82.149,194.824,90.413,186.262,115.909z"/>
		</defs>
		<clipPath id="SVGID_11_">
			<use xlink:href="#SVGID_10_"  overflow="visible"/>
		</clipPath>
		<radialGradient id="SVGID_12_" cx="93.4404" cy="150.0498" r="63.999" gradientUnits="userSpaceOnUse">
			<stop  offset="0" style="stop-color:#FFFFFF"/>
			<stop  offset="1" style="stop-color:#FFFFFF;stop-opacity:0.5"/>
		</radialGradient>
		<circle clip-path="url(#SVGID_11_)" fill="url(#SVGID_12_)" cx="93.44" cy="150.05" r="63.999"/>
	</g>
</g>
</svg>
