<?xml version="1.0" encoding="utf-8"?>
<!-- Generator: Adobe Illustrator 16.0.0, SVG Export Plug-In . SVG Version: 6.00 Build 0)  -->
<!DOCTYPE svg PUBLIC "-//W3C//DTD SVG 1.1//EN" "http://www.w3.org/Graphics/SVG/1.1/DTD/svg11.dtd">
<svg version="1.1" id="Layer_1" xmlns="http://www.w3.org/2000/svg" xmlns:xlink="http://www.w3.org/1999/xlink" x="0px" y="0px"
	 width="60px" height="60px" viewBox="0 0 60 60" enable-background="new 0 0 60 60" xml:space="preserve">
<g>
	<g>
		<path fill="#3D5159" d="M52.873,13.222L33.245,1.843c-1.938-1.125-4.335-1.125-6.272,0L7.233,13.222
			C5.307,14.339,4,16.396,4,18.623v22.755c0,2.227,1.305,4.283,3.229,5.4l19.68,11.379C27.877,58.719,28.988,59,30.071,59
			c1.08,0,2.179-0.281,3.148-0.843l19.646-11.379c1.922-1.117,3.135-3.173,3.135-5.4V18.623C56,16.396,54.797,14.339,52.873,13.222z
			 M53,41.935c0,1.002-0.286,1.928-1.152,2.43L31.385,56.3c-0.434,0.252-0.859,0.379-1.347,0.379c-0.484,0-0.938-0.127-1.376-0.379
			L8.239,44.365C7.374,43.862,7,42.937,7,41.935v-23.87c0-1.002,0.388-1.927,1.254-2.429L28.766,3.7c0.872-0.507,1.913-0.507,2.78,0
			l20.318,11.936C52.73,16.138,53,17.062,53,18.065V41.935z"/>
	</g>
</g>
</svg>
