<?xml version="1.0" encoding="utf-8"?>
<!-- Generator: Adobe Illustrator 16.0.0, SVG Export Plug-In . SVG Version: 6.00 Build 0)  -->
<!DOCTYPE svg PUBLIC "-//W3C//DTD SVG 1.1//EN" "http://www.w3.org/Graphics/SVG/1.1/DTD/svg11.dtd">
<svg version="1.1" id="Layer_1" xmlns="http://www.w3.org/2000/svg" xmlns:xlink="http://www.w3.org/1999/xlink" x="0px" y="0px"
	 width="247px" height="340px" viewBox="0 0 247 340" enable-background="new 0 0 247 340" xml:space="preserve">
<g>
	<g>
		<path fill="#3D5159" d="M218.202,53.241l-80.97-46.969c-7.994-4.637-17.851-4.637-25.846,0L30.119,53.241
			C22.169,57.851,17,66.345,17,75.534v93.938c0,9.189,5.175,17.682,13.124,22.293l81.133,46.969
			c3.998,2.317,8.534,3.477,12.999,3.477s8.965-1.158,12.963-3.477l80.965-46.969c7.949-4.61,12.816-13.104,12.816-22.293V75.534
			C231,66.345,226.15,57.851,218.202,53.241z M220,171.775c0,4.133-1.759,7.951-5.333,10.025l-84.749,49.273
			c-1.797,1.043-3.695,1.562-5.702,1.562c-2.008,0-3.96-0.521-5.758-1.562l-85.325-49.273C29.559,179.729,27,175.908,27,171.775
			V73.228c0-4.132,2.585-7.95,6.159-10.022l85.161-49.275c3.595-2.085,8.125-2.085,11.722,0l84.574,49.275
			c3.573,2.072,5.384,5.89,5.384,10.022V171.775z"/>
	</g>
	<g>
		<path fill="#3D5159" d="M61.985,329.205h-2.078l-13.05-30.298l-13.01,30.298h-2.078L15.85,283.734h8.438l9.519,29.221
			l11.845-29.221h2.078l12.22,29.221l10.224-29.221h7.772L61.985,329.205z"/>
		<path fill="#3D5159" d="M105.069,323.264c-3.158,3.963-7.994,5.941-14.506,5.941c-3.49,0-6.519-1.266-9.08-3.803
			c-2.563-2.535-3.845-5.688-3.845-9.453c0-4.52,1.975-8.336,5.923-11.453c3.948-3.118,8.983-4.676,15.107-4.676
			c1.662,0,3.546,0.361,5.653,1.08c0-7.201-3.215-10.807-9.644-10.807c-4.933,0-8.729,1.331-11.389,3.989l-3.324-6.606
			c1.496-1.219,3.567-2.266,6.214-3.138c2.646-0.873,5.175-1.31,7.585-1.31c6.456,0,11.145,1.468,14.069,4.404
			c2.923,2.938,4.385,7.606,4.385,14.006V317.4c0,3.906,1.163,6.512,3.49,7.812v3.949c-3.214,0-5.617-0.456-7.211-1.369
			C106.904,326.878,105.761,325.368,105.069,323.264z M104.322,306.512c-2.494-0.553-4.24-0.83-5.238-0.83
			c-3.989,0-7.246,1.023-9.767,3.075c-2.522,2.052-3.781,4.476-3.781,7.274c0,4.627,2.729,6.938,8.188,6.938
			c3.989,0,7.522-1.896,10.599-5.694v-10.764H104.322z"/>
		<path fill="#3D5159" d="M121.012,315.782v-54.773h7.896v53.441c0,2.386,0.686,4.261,2.059,5.633
			c1.371,1.372,3.162,2.056,5.381,2.056v7.066C126.124,329.205,121.012,324.732,121.012,315.782z"/>
		<path fill="#3D5159" d="M141.861,315.782v-65.517h7.896v64.185c0,2.386,0.685,4.261,2.056,5.633
			c1.373,1.372,3.17,2.056,5.385,2.056v7.066C146.971,329.205,141.861,324.732,141.861,315.782z"/>
		<path fill="#3D5159" d="M187.229,323.264c-3.158,3.963-7.994,5.941-14.506,5.941c-3.49,0-6.518-1.266-9.08-3.803
			c-2.562-2.535-3.844-5.688-3.844-9.453c0-4.52,1.975-8.336,5.924-11.453c3.949-3.118,8.982-4.676,15.105-4.676
			c1.664,0,3.547,0.361,5.654,1.08c0-7.201-3.215-10.807-9.646-10.807c-4.933,0-8.729,1.331-11.387,3.989l-3.326-6.606
			c1.496-1.219,3.565-2.266,6.215-3.138c2.646-0.873,5.177-1.31,7.584-1.31c6.455,0,11.146,1.468,14.07,4.404
			c2.922,2.938,4.383,7.606,4.383,14.006V317.4c0,3.906,1.166,6.512,3.494,7.812v3.949c-3.216,0-5.619-0.456-7.213-1.369
			C189.064,326.878,187.92,325.368,187.229,323.264z M186.482,306.512c-2.496-0.553-4.24-0.83-5.238-0.83
			c-3.99,0-7.246,1.023-9.766,3.075c-2.523,2.052-3.781,4.476-3.781,7.274c0,4.627,2.725,6.938,8.184,6.938
			c3.992,0,7.525-1.896,10.602-5.694V306.512L186.482,306.512z"/>
		<path fill="#3D5159" d="M199.639,325.715l2.787-7.48c4.404,2.881,7.949,4.322,10.639,4.322c4.879,0,7.312-2.052,7.312-6.152
			c0-2.937-2.355-5.459-7.062-7.564c-3.629-1.66-6.073-2.922-7.336-3.779c-1.262-0.858-2.354-1.838-3.285-2.931
			c-0.928-1.096-1.618-2.259-2.077-3.493c-0.455-1.232-0.685-2.556-0.685-3.969c0-3.657,1.328-6.511,3.988-8.561
			c2.66-2.053,6.137-3.076,10.432-3.076c3.244,0,7.33,1.023,12.262,3.076l-2.243,7.314c-3.132-2.495-6.272-3.742-9.437-3.742
			c-1.885,0-3.469,0.444-4.758,1.33c-1.289,0.889-1.932,2.012-1.932,3.368c0,2.853,1.619,5.015,4.863,6.481l5.649,2.576
			c3.464,1.58,5.986,3.383,7.563,5.402c1.58,2.023,2.371,4.561,2.371,7.607c0,3.988-1.399,7.113-4.198,9.373
			c-2.798,2.257-6.679,3.386-11.638,3.386C208.174,329.205,203.768,328.043,199.639,325.715z"/>
	</g>
</g>
<g>
	
		<radialGradient id="SVGID_1_" cx="189.6748" cy="170.334" r="159.1677" fx="113.8119" fy="154.0916" gradientUnits="userSpaceOnUse">
		<stop  offset="0" style="stop-color:#00A99D"/>
		<stop  offset="1" style="stop-color:#22B573"/>
	</radialGradient>
	<path fill="url(#SVGID_1_)" d="M74.014,175.069v-2c0-23.615,11.584-45.149,29.142-54.774c-7.518-6.102-11.917-15.233-11.917-25.033
		C91.238,75.473,105.71,61,123.5,61c17.79,0,32.262,14.473,32.262,32.262c0,9.799-4.399,18.931-11.917,25.033
		c17.557,9.625,29.142,31.158,29.142,54.774v2H74.014z"/>
	<path fill="#FFFFFF" d="M123.5,63c16.713,0,30.262,13.549,30.262,30.262c0,10.617-5.473,19.951-13.745,25.353
		c18.082,8.205,30.97,29.487,30.97,54.455H76.014c0-24.967,12.887-46.25,30.97-54.455c-8.273-5.401-13.746-14.735-13.746-25.353
		C93.238,76.549,106.787,63,123.5,63 M123.5,59c-18.892,0-34.262,15.37-34.262,34.262c0,9.442,3.845,18.3,10.52,24.701
		c-7.364,4.6-13.688,11.275-18.502,19.589c-6.046,10.441-9.242,22.724-9.242,35.518v4h4h94.973h4v-4
		c0-12.794-3.196-25.076-9.242-35.518c-4.814-8.313-11.138-14.989-18.502-19.588c6.674-6.401,10.52-15.259,10.52-24.701
		C157.762,74.37,142.392,59,123.5,59L123.5,59z"/>
</g>
<g opacity="0.35">
	<defs>
		<path id="SVGID_2_" opacity="0.35" d="M76.014,173.069h94.973c0-24.968-12.888-46.25-30.97-54.455
			c8.272-5.401,13.745-14.735,13.745-25.353C153.762,76.549,140.213,63,123.5,63c-16.713,0-30.262,13.549-30.262,30.262
			c0,10.618,5.472,19.952,13.746,25.353C88.901,126.82,76.014,148.102,76.014,173.069z"/>
	</defs>
	<clipPath id="SVGID_3_">
		<use xlink:href="#SVGID_2_"  overflow="visible"/>
	</clipPath>
	
		<radialGradient id="SVGID_4_" cx="150.8984" cy="-52.1836" r="114.2014" gradientTransform="matrix(1 0 0 -1 -104 147)" gradientUnits="userSpaceOnUse">
		<stop  offset="0" style="stop-color:#FFFFFF"/>
		<stop  offset="1" style="stop-color:#FFFFFF;stop-opacity:0.5"/>
	</radialGradient>
	<circle clip-path="url(#SVGID_3_)" fill="url(#SVGID_4_)" cx="46.899" cy="199.184" r="114.202"/>
</g>
</svg>
