<?xml version="1.0" encoding="utf-8"?>
<!-- Generator: Adobe Illustrator 16.0.0, SVG Export Plug-In . SVG Version: 6.00 Build 0)  -->
<!DOCTYPE svg PUBLIC "-//W3C//DTD SVG 1.1//EN" "http://www.w3.org/Graphics/SVG/1.1/DTD/svg11.dtd">
<svg version="1.1" id="Layer_1" xmlns="http://www.w3.org/2000/svg" xmlns:xlink="http://www.w3.org/1999/xlink" x="0px" y="0px"
	 width="150px" height="150px" viewBox="0 0 150 150" enable-background="new 0 0 150 150" xml:space="preserve">
<g>
	<g>
		<path fill="#3D5159" d="M130.431,34.052L82.559,6.284c-4.727-2.741-10.554-2.741-15.281,0L19.494,34.052
			C14.794,36.777,12,41.799,12,47.231v55.537c0,5.433,2.797,10.455,7.497,13.18l47.835,27.769c2.364,1.371,4.98,2.055,7.62,2.055
			s5.268-0.685,7.632-2.055l47.854-27.769c4.699-2.726,7.563-7.747,7.563-13.18V47.231C138,41.799,135.13,36.777,130.431,34.052z
			 M132,104.131c0,2.443-1.295,4.701-3.408,5.927l-50.232,29.131c-1.062,0.617-2.248,0.924-3.434,0.924
			c-1.188,0-2.374-0.308-3.437-0.924l-50.154-29.131c-2.113-1.227-3.335-3.484-3.335-5.927V45.869c0-2.443,1.222-4.701,3.335-5.926
			L71.53,10.811c2.125-1.232,4.728-1.232,6.853,0l50.219,29.132c2.113,1.225,3.398,3.483,3.398,5.926V104.131z"/>
	</g>
</g>
</svg>
