<?xml version="1.0" encoding="utf-8"?>
<!-- Generator: Adobe Illustrator 16.0.0, SVG Export Plug-In . SVG Version: 6.00 Build 0)  -->
<!DOCTYPE svg PUBLIC "-//W3C//DTD SVG 1.1//EN" "http://www.w3.org/Graphics/SVG/1.1/DTD/svg11.dtd">
<svg version="1.1" id="Layer_1" xmlns="http://www.w3.org/2000/svg" xmlns:xlink="http://www.w3.org/1999/xlink" x="0px" y="0px"
	 width="150px" height="150px" viewBox="0 0 150 150" enable-background="new 0 0 150 150" xml:space="preserve">
<g>
	<g>
		<radialGradient id="SVGID_1_" cx="82.2725" cy="81.2461" r="58.1998" gradientUnits="userSpaceOnUse">
			<stop  offset="0" style="stop-color:#00A99D"/>
			<stop  offset="1" style="stop-color:#22B573"/>
		</radialGradient>
		<path fill="url(#SVGID_1_)" d="M68.833,105.259c-10.629,0-26.208-19.373-31.523-32.434c-2.825-6.943-2.905-12.304-0.244-16.389
			c2.513-3.856,7.159-6.138,11.807-8.029c3.41-1.388,7.4-2.806,11.144-2.806c6.285,0,10.791,3.881,14.182,12.213
			c5.628,13.834,8.418,42.479-2.419,46.888C70.874,105.072,69.882,105.259,68.833,105.259z"/>
		<path fill="#FFFFFF" d="M60.017,46.472c5.222,0,9.792,2.863,13.375,11.671c5.891,14.479,7.8,41.791-1.941,45.754
			c-0.82,0.334-1.698,0.492-2.619,0.492c-10.021,0-25.32-18.631-30.716-31.892c-5.893-14.481,1.343-19.319,11.085-23.283
			C53.018,47.661,56.653,46.472,60.017,46.472 M60.018,44.731L60.018,44.731c-3.896,0-7.986,1.451-11.473,2.87
			c-4.779,1.944-9.565,4.303-12.208,8.36c-2.828,4.342-2.774,9.965,0.167,17.193c2.777,6.823,8.122,15.037,13.95,21.435
			c3.926,4.311,11.534,11.541,18.379,11.541c1.163,0,2.265-0.208,3.275-0.619c5.101-2.076,7.913-9.372,7.917-20.546
			c0.005-9.187-1.967-19.972-5.02-27.477C71.513,48.904,66.61,44.731,60.018,44.731L60.018,44.731z"/>
	</g>
	<g opacity="0.25">
		<defs>
			<path id="SVGID_2_" opacity="0.25" d="M73.393,58.144c5.891,14.479,7.8,41.791-1.941,45.754
				c-9.742,3.965-27.442-16.919-33.335-31.4c-5.893-14.481,1.343-19.319,11.085-23.283C58.942,45.25,67.5,43.662,73.393,58.144z"/>
		</defs>
		<clipPath id="SVGID_3_">
			<use xlink:href="#SVGID_2_"  overflow="visible"/>
		</clipPath>
		<radialGradient id="SVGID_4_" cx="35.4473" cy="105.7207" r="36.2317" gradientUnits="userSpaceOnUse">
			<stop  offset="0" style="stop-color:#FFFFFF"/>
			<stop  offset="1" style="stop-color:#FFFFFF;stop-opacity:0.5"/>
		</radialGradient>
		<circle clip-path="url(#SVGID_3_)" fill="url(#SVGID_4_)" cx="35.447" cy="105.721" r="36.232"/>
	</g>
	<g>
		<radialGradient id="SVGID_5_" cx="87.9189" cy="88.9478" r="49.8974" gradientUnits="userSpaceOnUse">
			<stop  offset="0" style="stop-color:#00A99D"/>
			<stop  offset="1" style="stop-color:#22B573"/>
		</radialGradient>
		<path fill="url(#SVGID_5_)" d="M73.683,105.12c-11.33,0-19.28-25.808-19.28-39.78c0-15.794,9.524-17.116,19.28-17.116
			s19.28,1.322,19.28,17.116C92.963,79.312,85.012,105.12,73.683,105.12z"/>
		<path fill="#FFFFFF" d="M73.683,49.095c10.168,0,18.41,1.639,18.41,16.245c0,14.604-8.241,38.91-18.41,38.91
			c-10.168,0-18.409-24.306-18.409-38.91C55.274,50.734,63.515,49.095,73.683,49.095 M73.683,47.354
			c-9.75,0-20.15,1.39-20.15,17.986c0,7.59,2.17,17.641,5.528,25.607c2.369,5.618,7.417,15.044,14.622,15.044
			s12.253-9.426,14.623-15.044c3.358-7.966,5.528-18.018,5.528-25.607C93.834,48.743,83.433,47.354,73.683,47.354L73.683,47.354z"/>
	</g>
	<g opacity="0.3">
		<defs>
			<path id="SVGID_6_" opacity="0.3" d="M92.093,65.34c0,14.604-8.241,38.91-18.41,38.91c-10.168,0-18.409-24.306-18.409-38.91
				c0-14.606,8.241-16.245,18.409-16.245C83.852,49.095,92.093,50.734,92.093,65.34z"/>
		</defs>
		<clipPath id="SVGID_7_">
			<use xlink:href="#SVGID_6_"  overflow="visible"/>
		</clipPath>
		<radialGradient id="SVGID_8_" cx="57.4883" cy="91.2866" r="24.2646" gradientUnits="userSpaceOnUse">
			<stop  offset="0" style="stop-color:#FFFFFF"/>
			<stop  offset="1" style="stop-color:#FFFFFF;stop-opacity:0.5"/>
		</radialGradient>
		<circle clip-path="url(#SVGID_7_)" fill="url(#SVGID_8_)" cx="57.489" cy="91.287" r="24.264"/>
	</g>
	<g>
		<radialGradient id="SVGID_9_" cx="121.1279" cy="71.46" r="58.1236" fx="93.4249" fy="65.5287" gradientUnits="userSpaceOnUse">
			<stop  offset="0" style="stop-color:#00A99D"/>
			<stop  offset="1" style="stop-color:#22B573"/>
		</radialGradient>
		<path fill="url(#SVGID_9_)" d="M79.749,105.46c-1.123,0-2.205-0.173-3.216-0.512c-5.64-1.894-9.464-9.066-10.768-20.195
			c-1.102-9.406-0.137-20.475,2.457-28.2c2.952-8.79,7.762-12.884,15.137-12.884c4.217,0,8.859,1.369,12.845,2.708
			c5.559,1.866,11.162,4.132,14.492,8.035c3.56,4.171,4.107,9.721,1.674,16.967C107.761,85.103,92.033,105.46,79.749,105.46z"/>
		<path fill="#FFFFFF" d="M83.359,44.54c3.82,0,8.071,1.152,12.567,2.662c11.734,3.941,20.68,8.827,15.617,23.9
			c-4.653,13.86-20.199,33.488-31.795,33.488c-1.013,0-1.996-0.151-2.939-0.467c-11.734-3.941-12.823-32.22-7.762-47.292
			C72.171,47.531,77.205,44.541,83.359,44.54 M83,42.799v1.741V43h0.359c-7.696,0-12.917,4.309-15.962,13.377
			c-4.931,14.686-4.597,44.929,8.859,49.447c1.101,0.37,2.275,0.532,3.493,0.532c7.822,0,15.764-7.612,19.801-12.142
			c6.012-6.746,11.24-15.391,13.645-22.552c2.54-7.561,1.938-13.389-1.835-17.812c-3.469-4.064-9.381-6.39-15.059-8.297
			C92.249,44.192,87,42.797,83,42.797V42.799z"/>
	</g>
	<g opacity="0.35">
		<defs>
			<path id="SVGID_10_" opacity="0.35" d="M111.544,71.102c-5.061,15.071-22.999,36.961-34.734,33.021
				c-11.734-3.941-12.823-32.22-7.762-47.292C74.11,41.757,84.19,43.26,95.927,47.202C107.661,51.143,116.606,56.028,111.544,71.102
				z"/>
		</defs>
		<clipPath id="SVGID_11_">
			<use xlink:href="#SVGID_10_"  overflow="visible"/>
		</clipPath>
		<radialGradient id="SVGID_12_" cx="56.667" cy="91.2861" r="37.8369" gradientUnits="userSpaceOnUse">
			<stop  offset="0" style="stop-color:#FFFFFF"/>
			<stop  offset="1" style="stop-color:#FFFFFF;stop-opacity:0.5"/>
		</radialGradient>
		<circle clip-path="url(#SVGID_11_)" fill="url(#SVGID_12_)" cx="56.667" cy="91.287" r="37.837"/>
	</g>
</g>
</svg>
